<?xml version="1.0" encoding="UTF-8"?>
<svg xmlns="http://www.w3.org/2000/svg" viewBox="0 0 80 80">
    <path d="M 40 7 C 37.803367 7 36.001085 8.8016514 36 10.998047 C 36 10.998708 36 10.999339 36 11 L 14.464844 21.044922 C 13.774956 19.832846 12.484982 19 11 19 C 8.8027056 19 7 20.802706 7 23 C 7 24.850301 8.2842135 26.405591 10 26.855469 L 10 65.144531 C 8.2842135 65.594409 7 67.149699 7 69 C 7 71.197294 8.8027056 73 11 73 C 12.850301 73 14.405591 71.715786 14.855469 70 L 59.144531 70 C 59.594409 71.715786 61.149699 73 63 73 C 65.197294 73 67 71.197294 67 69 C 67 67.43602 66.078584 66.086081 64.759766 65.429688 L 69.197266 43.980469 C 71.302309 43.874441 73 42.12982 73 40 C 73 37.932364 71.398109 36.234643 69.378906 36.039062 L 66.599609 18.658203 C 68.007458 18.036722 69 16.628998 69 15 C 69 12.802706 67.197294 11 65 11 C 63.370059 11 61.960769 11.993197 61.339844 13.402344 L 43.960938 10.623047 C 43.766269 8.602927 42.068298 7 40 7 z M 40 9 C 41.116414 9 42 9.8835859 42 11 C 42 12.116414 41.116414 13 40 13 C 38.883586 13 38 12.116414 38 11 C 38 9.8835859 38.883586 9 40 9 z M 40 10 A 1 1 0 0 0 39 11 A 1 1 0 0 0 40 12 A 1 1 0 0 0 41 11 A 1 1 0 0 0 40 10 z M 43.658203 12.599609 L 61.039062 15.378906 C 61.222441 17.272135 62.729565 18.778473 64.623047 18.960938 L 67.402344 36.339844 C 65.993197 36.960769 65 38.370059 65 40 C 65 41.56398 65.921416 42.913919 67.240234 43.570312 L 62.802734 65.019531 C 61.040647 65.108285 59.578003 66.346783 59.144531 68 L 14.855469 68 C 14.489958 66.60598 13.39402 65.510042 12 65.144531 L 12 26.855469 C 13.715786 26.405591 15 24.850301 15 23 L 36.535156 12.955078 C 37.225044 14.167154 38.515018 15 40 15 C 41.628998 15 43.036722 14.007458 43.658203 12.599609 z M 65 13 C 66.116414 13 67 13.883586 67 15 C 67 16.116414 66.116414 17 65 17 C 63.883586 17 63 16.116414 63 15 C 63 13.883586 63.883586 13 65 13 z M 65 14 A 1 1 0 0 0 64 15 A 1 1 0 0 0 65 16 A 1 1 0 0 0 66 15 A 1 1 0 0 0 65 14 z M 11 21 C 12.116414 21 13 21.883586 13 23 C 13 24.116414 12.116414 25 11 25 C 9.8835859 25 9 24.116414 9 23 C 9 21.883586 9.8835859 21 11 21 z M 11 22 A 1 1 0 0 0 10 23 A 1 1 0 0 0 11 24 A 1 1 0 0 0 12 23 A 1 1 0 0 0 11 22 z M 69 38 C 70.116414 38 71 38.883586 71 40 C 71 41.116414 70.116414 42 69 42 C 67.883586 42 67 41.116414 67 40 C 67 38.883586 67.883586 38 69 38 z M 69 39 A 1 1 0 0 0 68 40 A 1 1 0 0 0 69 41 A 1 1 0 0 0 70 40 A 1 1 0 0 0 69 39 z M 11 67 C 12.116414 67 13 67.883586 13 69 C 13 70.116414 12.116414 71 11 71 C 9.8835859 71 9 70.116414 9 69 C 9 67.883586 9.8835859 67 11 67 z M 63 67 C 64.116414 67 65 67.883586 65 69 C 65 70.116414 64.116414 71 63 71 C 61.883586 71 61 70.116414 61 69 C 61 67.883586 61.883586 67 63 67 z M 11 68 A 1 1 0 0 0 10 69 A 1 1 0 0 0 11 70 A 1 1 0 0 0 12 69 A 1 1 0 0 0 11 68 z M 63 68 A 1 1 0 0 0 62 69 A 1 1 0 0 0 63 70 A 1 1 0 0 0 64 69 A 1 1 0 0 0 63 68 z"/>
</svg>